<?xml version="1.0" standalone="no"?>
<!DOCTYPE svg PUBLIC "-//W3C//DTD SVG 20010904//EN"
 "http://www.w3.org/TR/2001/REC-SVG-20010904/DTD/svg10.dtd">
<svg version="1.0" xmlns="http://www.w3.org/2000/svg"
 width="700.000000pt" height="700.000000pt" viewBox="0 0 700.000000 700.000000"
 preserveAspectRatio="xMidYMid meet">
<metadata>
Created by potrace 1.14, written by Peter Selinger 2001-2017
</metadata>
<g transform="translate(0.000000,700.000000) scale(0.100000,-0.100000)"
fill="#000000" stroke="none">
<path d="M3437 6344 c-1 -1 -37 -4 -80 -8 -104 -9 -249 -39 -338 -71 -41 -15
-83 -29 -94 -32 -44 -13 -234 -118 -309 -171 -152 -109 -332 -300 -424 -452
-36 -60 -100 -193 -126 -261 -72 -193 -96 -343 -92 -579 3 -136 8 -186 30
-284 64 -278 194 -524 380 -720 l66 -69 -11 -41 c-6 -22 -13 -48 -14 -56 -2
-8 -42 -168 -90 -355 -47 -187 -88 -347 -90 -355 -1 -8 -78 -312 -170 -675
-91 -363 -168 -667 -170 -675 -2 -8 -38 -150 -81 -315 -87 -342 -92 -388 -50
-460 32 -55 91 -94 155 -103 25 -4 746 -7 1601 -7 l1555 1 40 21 c63 34 102
81 119 145 8 31 13 65 11 75 -2 10 -14 59 -25 108 -12 50 -23 97 -25 105 -2 8
-20 78 -40 155 -21 77 -38 147 -40 155 -2 8 -24 98 -50 200 -26 102 -48 192
-50 200 -6 26 -244 965 -317 1250 -68 267 -76 301 -97 385 -5 22 -12 49 -15
60 -3 11 -12 49 -21 85 -9 36 -18 72 -20 81 -3 9 12 34 37 60 142 150 213 254
293 422 111 237 146 410 140 687 -6 239 -49 428 -145 623 -41 84 -46 93 -90
162 -98 156 -284 346 -438 449 -160 106 -367 193 -532 226 -30 5 -66 12 -80
15 -51 10 -295 25 -303 19z"/>
</g>
</svg>
